<svg width="24" height="24" viewBox="0 0 24 24" fill="none" xmlns="http://www.w3.org/2000/svg">
<path d="M7.78972 19.8375C8.86732 20.9151 10.3558 21.5817 12.0003 21.5817C13.6447 21.5817 15.1339 20.9151 16.2109 19.8375C17.3238 18.7246 17.9551 17.2174 17.9551 15.6269C17.9551 13.9825 17.2885 12.4933 16.2109 11.4163C15.1333 10.3387 13.6442 9.67216 12.0003 9.67216C10.3559 9.67216 8.86674 10.3387 7.78972 11.4163C6.71212 12.4939 6.04556 13.9831 6.04556 15.6269C6.04556 17.2159 6.67475 18.7231 7.78972 19.8375ZM12.0003 10.9135C13.3011 10.9135 14.4797 11.4415 15.3328 12.2947C16.1859 13.1477 16.714 14.3258 16.714 15.6272C16.714 16.9286 16.186 18.1066 15.3328 18.9597C14.4798 19.8127 13.3017 20.3409 12.0003 20.3409C10.6989 20.3409 9.52094 19.8129 8.66777 18.9597C7.81476 18.1067 7.28662 16.9286 7.28662 15.6272C7.28662 14.3264 7.81464 13.1478 8.66777 12.2947C9.52077 11.4417 10.6989 10.9135 12.0003 10.9135ZM6.76842 20.4405H3.71175C2.96751 20.4405 2.28903 20.1349 1.79838 19.6442L1.79629 19.6422C1.30565 19.1509 1 18.473 1 17.7288V8.30942C1 7.56308 1.30566 6.88459 1.79629 6.39395C2.28755 5.90269 2.96604 5.59766 3.71238 5.59766H6.35612L7.77529 2.64006C7.85634 2.41964 8.06838 2.26239 8.31717 2.26239H15.6828C15.8969 2.26513 16.1027 2.38581 16.2018 2.59221L17.6445 5.59766H20.2883C21.0318 5.59766 21.7095 5.90331 22.2016 6.39395L22.2037 6.39604C22.695 6.88941 23 7.56645 23 8.30941V17.7288C23 18.4751 22.6952 19.1536 22.2037 19.6449C21.7131 20.1355 21.0346 20.4412 20.2882 20.4412H17.2316C17.165 20.514 17.0964 20.5846 17.0271 20.6546C15.7402 21.9415 13.9628 22.7377 12.0002 22.7377C10.0371 22.7377 8.25953 21.9414 6.97334 20.6546C6.90406 20.5854 6.83542 20.514 6.76888 20.4412L6.76842 20.4405ZM18.0972 19.2853H20.2883C20.7159 19.2853 21.106 19.11 21.3873 18.8278C21.6693 18.5459 21.8448 18.1563 21.8448 17.7282V8.30879C21.8448 7.87907 21.6701 7.49043 21.3894 7.20974L21.3873 7.20765C21.1067 6.92697 20.7172 6.75231 20.2883 6.75231H3.71242C3.2848 6.75231 2.89472 6.92762 2.61275 7.20975C2.33078 7.49172 2.15531 7.88131 2.15531 8.3088V17.7282C2.15531 18.1571 2.32997 18.5465 2.61131 18.8287C2.89327 19.11 3.28352 19.2847 3.7118 19.2847H5.90375C5.2607 18.2154 4.89062 16.9638 4.89062 15.6258C4.89062 13.6634 5.68691 11.8852 6.97364 10.599C8.26053 9.31207 10.0379 8.51595 12.0005 8.51595C13.963 8.51595 15.7412 9.31224 17.0274 10.599C18.3143 11.8859 19.1104 13.6632 19.1104 15.6258C19.1104 16.964 18.7403 18.2154 18.0973 19.2847L18.0972 19.2853Z" fill="#368796"/>
</svg>
