<svg width="25" height="24" viewBox="0 0 25 24" fill="none" xmlns="http://www.w3.org/2000/svg">
<path d="M12.6808 1C10.2204 1 8.22135 2.99909 8.22135 5.45942V12.5945C8.22135 15.0548 10.2204 17.0539 12.6808 17.0539C15.1411 17.0539 17.1402 15.0548 17.1402 12.5945V5.45942C17.1402 2.99909 15.1411 1 12.6808 1ZM6.14984 9.02695C5.83235 9.02197 5.54097 9.31333 5.54596 9.63083V12.6038C5.54596 16.3473 8.4208 19.4108 12.0864 19.7112V21.8109H9.70803C9.37955 21.8109 9.11349 22.0772 9.11349 22.4055C9.11349 22.7339 9.37976 23 9.70803 23H15.6539C15.9824 23 16.2485 22.7337 16.2485 22.4055C16.2485 22.077 15.9822 21.8109 15.6539 21.8109H13.2755V19.7112C16.9411 19.411 19.816 16.3476 19.816 12.6038V9.63083C19.8203 9.31665 19.5356 9.0278 19.2215 9.0278C18.9073 9.0278 18.6224 9.31667 18.6269 9.63083V12.6038C18.6269 15.9081 15.9853 18.5497 12.681 18.5497C9.37671 18.5497 6.73514 15.9081 6.73514 12.6038V9.63083C6.74012 9.31956 6.46109 9.03173 6.14984 9.02695Z" fill="#368796"/>
</svg>
