<svg width="24" height="25" viewBox="0 0 24 25" fill="none" xmlns="http://www.w3.org/2000/svg">
<path d="M15.7101 13.21C16.6905 12.4387 17.406 11.3809 17.7573 10.1839C18.1085 8.98697 18.078 7.71027 17.6698 6.53147C17.2617 5.35267 16.4963 4.33039 15.4801 3.60686C14.4639 2.88332 13.2475 2.49451 12.0001 2.49451C10.7526 2.49451 9.53617 2.88332 8.51999 3.60686C7.5038 4.33039 6.7384 5.35267 6.33027 6.53147C5.92214 7.71027 5.89157 8.98697 6.24282 10.1839C6.59407 11.3809 7.30967 12.4387 8.29006 13.21C6.61014 13.883 5.14434 14.9994 4.04895 16.4399C2.95356 17.8805 2.26962 19.5913 2.07006 21.39C2.05561 21.5213 2.06717 21.6542 2.10408 21.7811C2.14099 21.9079 2.20253 22.0263 2.28517 22.1293C2.45208 22.3375 2.69484 22.4708 2.96006 22.5C3.22527 22.5292 3.49122 22.4518 3.69938 22.2849C3.90755 22.118 4.04088 21.8752 4.07006 21.61C4.28964 19.6552 5.22174 17.8498 6.68828 16.5388C8.15481 15.2278 10.053 14.503 12.0201 14.503C13.9872 14.503 15.8853 15.2278 17.3518 16.5388C18.8184 17.8498 19.7505 19.6552 19.9701 21.61C19.9972 21.8557 20.1145 22.0827 20.2992 22.247C20.4838 22.4114 20.7228 22.5015 20.9701 22.5H21.0801C21.3422 22.4698 21.5818 22.3373 21.7466 22.1313C21.9115 21.9252 21.9882 21.6624 21.9601 21.4C21.7596 19.5962 21.0719 17.881 19.9709 16.4382C18.8699 14.9954 17.397 13.8795 15.7101 13.21ZM12.0001 12.5C11.2089 12.5 10.4356 12.2654 9.77778 11.8259C9.11998 11.3864 8.60729 10.7616 8.30454 10.0307C8.00179 9.29983 7.92258 8.49557 8.07692 7.71964C8.23126 6.94372 8.61222 6.23099 9.17163 5.67158C9.73104 5.11217 10.4438 4.7312 11.2197 4.57686C11.9956 4.42252 12.7999 4.50173 13.5308 4.80448C14.2617 5.10724 14.8864 5.61993 15.3259 6.27772C15.7655 6.93552 16.0001 7.70888 16.0001 8.5C16.0001 9.56087 15.5786 10.5783 14.8285 11.3284C14.0783 12.0786 13.0609 12.5 12.0001 12.5Z" fill="#40AABF"/>
</svg>
