<svg width="16" height="21" viewBox="0 0 16 21" fill="none" xmlns="http://www.w3.org/2000/svg">
<path d="M8.00006 9.3C8.39562 9.3 8.7823 9.1827 9.1112 8.96294C9.4401 8.74317 9.69645 8.43082 9.84782 8.06536C9.9992 7.69991 10.0388 7.29778 9.96163 6.90982C9.88446 6.52185 9.69398 6.16549 9.41427 5.88578C9.13457 5.60608 8.7782 5.4156 8.39024 5.33843C8.00228 5.26126 7.60015 5.30086 7.23469 5.45224C6.86924 5.60361 6.55688 5.85996 6.33712 6.18886C6.11736 6.51775 6.00006 6.90443 6.00006 7.3C6.00006 7.83043 6.21077 8.33914 6.58585 8.71421C6.96092 9.08928 7.46963 9.3 8.00006 9.3ZM7.29006 16.21C7.38302 16.3037 7.49363 16.3781 7.61548 16.4289C7.73734 16.4797 7.86805 16.5058 8.00006 16.5058C8.13207 16.5058 8.26278 16.4797 8.38464 16.4289C8.5065 16.3781 8.6171 16.3037 8.71006 16.21L12.8001 12.11C13.75 11.1605 14.3971 9.95068 14.6593 8.63346C14.9216 7.31623 14.7874 5.9508 14.2735 4.70989C13.7597 3.46897 12.8894 2.40831 11.7728 1.66205C10.6561 0.915803 9.34315 0.517487 8.00006 0.517487C6.65697 0.517487 5.34406 0.915803 4.22737 1.66205C3.11068 2.40831 2.24039 3.46897 1.72658 4.70989C1.21276 5.9508 1.07851 7.31623 1.34079 8.63346C1.60307 9.95068 2.25011 11.1605 3.20006 12.11L7.29006 16.21ZM3.23006 6.84C3.29839 6.12701 3.52508 5.43829 3.89359 4.82411C4.26209 4.20993 4.76311 3.6858 5.36006 3.29C6.14426 2.77509 7.06192 2.50076 8.00006 2.50076C8.9382 2.50076 9.85586 2.77509 10.6401 3.29C11.233 3.68445 11.7312 4.2054 12.0988 4.81538C12.4664 5.42537 12.6942 6.10923 12.7659 6.81778C12.8376 7.52634 12.7515 8.24198 12.5136 8.91325C12.2757 9.58452 11.892 10.1947 11.3901 10.7L8.00006 14.09L4.61006 10.7C4.10758 10.1996 3.72299 9.59353 3.48427 8.9258C3.24554 8.25807 3.1587 7.54552 3.23006 6.84ZM15.0001 18.5H1.00006C0.734845 18.5 0.480491 18.6054 0.292954 18.7929C0.105418 18.9804 6.10352e-05 19.2348 6.10352e-05 19.5C6.10352e-05 19.7652 0.105418 20.0196 0.292954 20.2071C0.480491 20.3946 0.734845 20.5 1.00006 20.5H15.0001C15.2653 20.5 15.5196 20.3946 15.7072 20.2071C15.8947 20.0196 16.0001 19.7652 16.0001 19.5C16.0001 19.2348 15.8947 18.9804 15.7072 18.7929C15.5196 18.6054 15.2653 18.5 15.0001 18.5Z" fill="#40AABF"/>
</svg>
