<svg width="16" height="21" viewBox="0 0 16 21" fill="none" xmlns="http://www.w3.org/2000/svg">
<path d="M8.00006 11.5C7.69561 11.4964 7.39738 11.5862 7.1455 11.7573C6.89363 11.9284 6.70021 12.1725 6.59127 12.4568C6.48234 12.7411 6.46312 13.052 6.53621 13.3476C6.60929 13.6431 6.77118 13.9092 7.00006 14.11V15.5C7.00006 15.7652 7.10542 16.0196 7.29295 16.2071C7.48049 16.3946 7.73484 16.5 8.00006 16.5C8.26528 16.5 8.51963 16.3946 8.70717 16.2071C8.8947 16.0196 9.00006 15.7652 9.00006 15.5V14.11C9.22895 13.9092 9.39083 13.6431 9.46391 13.3476C9.537 13.052 9.51778 12.7411 9.40885 12.4568C9.29991 12.1725 9.10649 11.9284 8.85462 11.7573C8.60275 11.5862 8.30451 11.4964 8.00006 11.5ZM13.0001 7.5V5.5C13.0001 4.17392 12.4733 2.90215 11.5356 1.96447C10.5979 1.02678 9.32614 0.5 8.00006 0.5C6.67398 0.5 5.40221 1.02678 4.46453 1.96447C3.52685 2.90215 3.00006 4.17392 3.00006 5.5V7.5C2.20441 7.5 1.44135 7.81607 0.878741 8.37868C0.316132 8.94129 6.10352e-05 9.70435 6.10352e-05 10.5V17.5C6.10352e-05 18.2956 0.316132 19.0587 0.878741 19.6213C1.44135 20.1839 2.20441 20.5 3.00006 20.5H13.0001C13.7957 20.5 14.5588 20.1839 15.1214 19.6213C15.684 19.0587 16.0001 18.2956 16.0001 17.5V10.5C16.0001 9.70435 15.684 8.94129 15.1214 8.37868C14.5588 7.81607 13.7957 7.5 13.0001 7.5ZM5.00006 5.5C5.00006 4.70435 5.31613 3.94129 5.87874 3.37868C6.44135 2.81607 7.20441 2.5 8.00006 2.5C8.79571 2.5 9.55877 2.81607 10.1214 3.37868C10.684 3.94129 11.0001 4.70435 11.0001 5.5V7.5H5.00006V5.5ZM14.0001 17.5C14.0001 17.7652 13.8947 18.0196 13.7072 18.2071C13.5196 18.3946 13.2653 18.5 13.0001 18.5H3.00006C2.73484 18.5 2.48049 18.3946 2.29295 18.2071C2.10542 18.0196 2.00006 17.7652 2.00006 17.5V10.5C2.00006 10.2348 2.10542 9.98043 2.29295 9.79289C2.48049 9.60536 2.73484 9.5 3.00006 9.5H13.0001C13.2653 9.5 13.5196 9.60536 13.7072 9.79289C13.8947 9.98043 14.0001 10.2348 14.0001 10.5V17.5Z" fill="#40AABF"/>
</svg>
